<?xml version="1.0" encoding="utf-8"?>
<!-- Generator: Adobe Illustrator 17.0.0, SVG Export Plug-In . SVG Version: 6.00 Build 0)  -->
<!DOCTYPE svg PUBLIC "-//W3C//DTD SVG 1.1//EN" "http://www.w3.org/Graphics/SVG/1.1/DTD/svg11.dtd">
<svg version="1.1" id="Layer_1" xmlns="http://www.w3.org/2000/svg" xmlns:xlink="http://www.w3.org/1999/xlink" x="0px" y="0px"
	 width="512px" height="512px" viewBox="0 0 512 512" enable-background="new 0 0 512 512" xml:space="preserve">
<g>
	<path d="M257,0.5C140.167,0.5,45.467,95.208,45.467,212.033C45.467,372.684,257,512.5,257,512.5s211.533-139.816,211.533-300.467
		C468.533,95.208,373.833,0.5,257,0.5z M257,376.441c-90.8,0-164.4-73.6-164.4-164.408c0-90.8,73.601-164.408,164.4-164.408
		s164.417,73.608,164.417,164.408C421.417,302.842,347.8,376.441,257,376.441z"/>
</g>
<path d="M86.724,264.1c20.976,0,20.976,10.488,41.952,10.488s20.976-10.488,41.952-10.488c17.987,0,20.546,7.709,34.128,9.908
	c-1.332-3.639-2.531-7.401-3.566-11.275c-3.153-11.729-4.59-23.29-4.485-34.107l-0.01,1.15c-7.558-3.108-12.292-7.628-26.066-7.628
	c-20.976,0-20.976,10.488-41.952,10.488s-20.976-10.488-41.952-10.488v-10.488c20.976,0,20.976,10.488,41.952,10.488
	s20.976-10.488,41.952-10.488c14.054,0,18.693,4.713,26.538,7.814c2.213-23.717,12.25-42.612,27.94-49.618l-12.362-45.979
	c-0.748-2.797,0.912-5.674,3.709-6.422c2.797-0.752,5.674,0.905,6.422,3.702l0.759,2.79c12.093-5.996,20.41-18.476,20.41-32.897
	c0-20.27-16.438-36.708-36.708-36.708c-18.497,0,0-10.484,0-10.484v-0.003c26.066,0,47.196,21.13,47.196,47.196l0,0
	c0,19.287-11.565,35.869-28.136,43.189l8.838,32.897c23.741-2.5,49.531,20.326,62.875,54.985
	c19.361-0.524,19.913-10.46,40.326-10.46c20.976,0,20.976,10.488,41.952,10.488c20.976,0,20.976-10.488,41.952-10.488v10.488
	c-20.976,0-20.976,10.488-41.952,10.488c-20.976,0-20.976-10.488-41.952-10.488c-19.112,0-20.812,8.712-36.841,10.254l0.01,0.052
	l0.021,0.049l0.01,0.049l0.021,0.049l0.01,0.049l0.01,0.049l0.01,0.035l0.01,0.014l0.01,0.052c0.266,0.905,0.521,1.814,0.769,2.723
	c3.534,13.148,4.905,26.08,4.384,37.987c11.425-2.685,14.774-9.411,31.572-9.411c20.976,0,20.976,10.488,41.952,10.488
	c20.976,0,20.976-10.488,41.952-10.488v10.488c-20.976,0-20.976,10.488-41.952,10.488c-20.976,0-20.976-10.488-41.952-10.488
	c-20.976,0-20.976,10.488-41.952,10.488s-20.976-10.488-41.952-10.488s-20.976,10.488-41.952,10.488s-20.976-10.488-41.952-10.488
	s-20.976,10.488-41.952,10.488s-20.976-10.488-41.952-10.488V264.1L86.724,264.1z M211.411,260.367
	c8.715,0.073,22.605-1.028,41.777-6.174c19.172-5.16,31.75-11.163,39.249-15.603l-0.091-0.353
	c-10.519-39.155-37.19-66.025-59.568-60.015c-22.367,6.013-31.985,42.626-21.458,81.785L211.411,260.367L211.411,260.367z
	 M86.724,316.54c20.976,0,20.976,10.488,41.952,10.488s20.976-10.488,41.952-10.488s20.976,10.488,41.952,10.488
	s20.976-10.488,41.952-10.488s20.976,10.488,41.952,10.488s20.976-10.488,41.952-10.488c20.976,0,20.976,10.488,41.952,10.488
	c20.976,0,20.976-10.488,41.952-10.488v10.488c-20.976,0-20.976,10.488-41.952,10.488c-20.976,0-20.976-10.488-41.952-10.488
	c-20.976,0-20.976,10.488-41.952,10.488s-20.976-10.488-41.952-10.488s-20.976,10.488-41.952,10.488s-20.976-10.488-41.952-10.488
	s-20.976,10.488-41.952,10.488s-20.976-10.488-41.952-10.488V316.54z"/>
</svg>
