<svg xmlns="http://www.w3.org/2000/svg" xmlns:xlink="http://www.w3.org/1999/xlink" version="1.1" x="0px" y="0px" viewBox="0 0 512 640" enable-background="new 0 0 512 512" xml:space="preserve"><g><path d="M256,0C139.167,0,44.467,94.708,44.467,211.533C44.467,372.184,256,512,256,512s211.533-139.816,211.533-300.467   C467.533,94.708,372.833,0,256,0z M256,375.941c-90.8,0-164.4-73.6-164.4-164.408c0-90.8,73.601-164.408,164.4-164.408   s164.417,73.608,164.417,164.408C420.417,302.342,346.8,375.941,256,375.941z"/><path d="M303.191,154.075c-9.066,9.066-10.983,22.566-5.75,33.508L227.1,257.9c-11.475,11.475-30.158,11.475-41.642,0   c-11.483-11.483-11.483-30.159,0-41.642l6.942,6.942l3.466-45.108l-24.291,24.292c-19.167,19.159-19.167,50.225,0,69.383   c19.166,19.167,50.241,19.167,69.408,0l70.342-70.3c10.941,5.217,24.449,3.309,33.517-5.75c11.5-11.508,11.5-30.142,0-41.642   C333.342,142.583,314.691,142.583,303.191,154.075z M330.958,181.833c-3.833,3.825-10.059,3.825-13.883,0   c-3.825-3.825-3.825-10.05,0-13.883c3.824-3.817,10.05-3.817,13.883,0C334.783,171.783,334.783,178.008,330.958,181.833z"/></g><text x="0" y="527" fill="#000000" font-size="5px" font-weight="bold" font-family="'Helvetica Neue', Helvetica, Arial-Unicode, Arial, Sans-serif">Created by lastspark</text><text x="0" y="532" fill="#000000" font-size="5px" font-weight="bold" font-family="'Helvetica Neue', Helvetica, Arial-Unicode, Arial, Sans-serif">from the Noun Project</text></svg>