<svg xmlns="http://www.w3.org/2000/svg" xmlns:xlink="http://www.w3.org/1999/xlink" version="1.1" x="0px" y="0px" viewBox="0 0 100 125" enable-background="new 0 0 100 100" xml:space="preserve"><path fill-rule="evenodd" clip-rule="evenodd" d="M2,71c6,0,6,3,12,3s6-3,12-3c5.145,0,5.877,2.205,9.762,2.834  c-0.381-1.041-0.724-2.117-1.02-3.225c-0.902-3.355-1.313-6.662-1.283-9.756l-0.003,0.329C31.294,60.293,29.94,59,26,59  c-6,0-6,3-12,3s-6-3-12-3v-3c6,0,6,3,12,3s6-3,12-3c4.02,0,5.347,1.348,7.591,2.235c0.633-6.784,3.504-12.189,7.992-14.193  L38.047,30.89c-0.214-0.8,0.261-1.623,1.061-1.837c0.8-0.215,1.623,0.259,1.837,1.059l0.217,0.798C44.621,29.195,47,25.625,47,21.5  C47,15.702,42.298,11,36.5,11c-5.291,0-9.665-3.911-10.395-9h3.044c0.694,3.425,3.721,6.001,7.351,6.001V8  C43.956,8,50,14.044,50,21.5l0,0c0,5.517-3.308,10.26-8.048,12.354l2.528,9.41c6.791-0.715,14.168,5.814,17.985,15.728  C68.003,58.842,68.161,56,74,56c6,0,6,3,12,3s6-3,12-3v3c-6,0-6,3-12,3s-6-3-12-3c-5.467,0-5.953,2.492-10.538,2.933l0.003,0.015  l0.006,0.014l0.003,0.014l0.006,0.014l0.003,0.014l0.003,0.014l0.003,0.01l0.003,0.004l0.003,0.015  c0.076,0.259,0.149,0.519,0.22,0.779c1.011,3.761,1.403,7.46,1.254,10.866C68.237,72.924,69.195,71,74,71c6,0,6,3,12,3s6-3,12-3v3  c-6,0-6,3-12,3s-6-3-12-3s-6,3-12,3s-6-3-12-3s-6,3-12,3s-6-3-12-3s-6,3-12,3s-6-3-12-3V71L2,71z M37.666,69.932  c2.493,0.021,6.466-0.294,11.95-1.766c5.484-1.476,9.082-3.193,11.227-4.463l-0.026-0.101c-3.009-11.2-10.638-18.886-17.039-17.167  c-6.398,1.72-9.149,12.193-6.138,23.394L37.666,69.932L37.666,69.932z M2,86c6,0,6,3,12,3s6-3,12-3s6,3,12,3s6-3,12-3s6,3,12,3  s6-3,12-3s6,3,12,3s6-3,12-3v3c-6,0-6,3-12,3s-6-3-12-3s-6,3-12,3s-6-3-12-3s-6,3-12,3s-6-3-12-3s-6,3-12,3s-6-3-12-3V86z"/><text x="0" y="115" fill="#000000" font-size="5px" font-weight="bold" font-family="'Helvetica Neue', Helvetica, Arial-Unicode, Arial, Sans-serif">Created by Stanislav Levin</text><text x="0" y="120" fill="#000000" font-size="5px" font-weight="bold" font-family="'Helvetica Neue', Helvetica, Arial-Unicode, Arial, Sans-serif">from the Noun Project</text></svg>